<svg xmlns="http://www.w3.org/2000/svg" xmlns:xlink="http://www.w3.org/1999/xlink" width="500" zoomAndPan="magnify" viewBox="0 0 375 74.999997" height="100" preserveAspectRatio="xMidYMid meet" version="1.0"><defs><g/><clipPath id="id1"><path d="M 10.839844 9.558594 L 54.339844 9.558594 L 54.339844 65.808594 L 10.839844 65.808594 Z M 10.839844 9.558594 " clip-rule="nonzero"/></clipPath><clipPath id="id2"><path d="M 10.839844 20 L 36 20 L 36 43 L 10.839844 43 Z M 10.839844 20 " clip-rule="nonzero"/></clipPath></defs><g fill="#000000" fill-opacity="1"><g transform="translate(54.241309, 53.47411)"><g><path d="M 21.84375 -10.703125 C 21.84375 -10.109375 21.804688 -9.488281 21.734375 -8.84375 L 7.359375 -8.84375 C 7.453125 -7.550781 7.863281 -6.5625 8.59375 -5.875 C 9.320312 -5.195312 10.222656 -4.859375 11.296875 -4.859375 C 12.878906 -4.859375 13.976562 -5.53125 14.59375 -6.875 L 21.359375 -6.875 C 21.003906 -5.507812 20.375 -4.28125 19.46875 -3.1875 C 18.570312 -2.101562 17.441406 -1.25 16.078125 -0.625 C 14.722656 -0.0078125 13.203125 0.296875 11.515625 0.296875 C 9.484375 0.296875 7.675781 -0.132812 6.09375 -1 C 4.507812 -1.863281 3.269531 -3.097656 2.375 -4.703125 C 1.488281 -6.316406 1.046875 -8.203125 1.046875 -10.359375 C 1.046875 -12.515625 1.484375 -14.394531 2.359375 -16 C 3.234375 -17.613281 4.460938 -18.851562 6.046875 -19.71875 C 7.640625 -20.582031 9.460938 -21.015625 11.515625 -21.015625 C 13.515625 -21.015625 15.296875 -20.59375 16.859375 -19.75 C 18.421875 -18.914062 19.640625 -17.71875 20.515625 -16.15625 C 21.398438 -14.59375 21.84375 -12.773438 21.84375 -10.703125 Z M 15.34375 -12.375 C 15.34375 -13.457031 14.96875 -14.320312 14.21875 -14.96875 C 13.476562 -15.613281 12.550781 -15.9375 11.4375 -15.9375 C 10.375 -15.9375 9.476562 -15.625 8.75 -15 C 8.019531 -14.382812 7.566406 -13.507812 7.390625 -12.375 Z M 15.34375 -12.375 "/></g></g></g><g fill="#000000" fill-opacity="1"><g transform="translate(77.115982, 53.47411)"><g><path d="M 14.5625 0 L 10.578125 -5.75 L 7.25 0 L 0.375 0 L 7.203125 -10.578125 L 0.1875 -20.71875 L 7.3125 -20.71875 L 11.296875 -15 L 14.640625 -20.71875 L 21.5 -20.71875 L 14.5625 -10.28125 L 21.6875 0 Z M 14.5625 0 "/></g></g></g><g fill="#000000" fill-opacity="1"><g transform="translate(98.950891, 53.47411)"><g><path d="M 1.046875 -10.359375 C 1.046875 -12.515625 1.484375 -14.394531 2.359375 -16 C 3.234375 -17.613281 4.457031 -18.851562 6.03125 -19.71875 C 7.601562 -20.582031 9.40625 -21.015625 11.4375 -21.015625 C 14.039062 -21.015625 16.210938 -20.332031 17.953125 -18.96875 C 19.703125 -17.613281 20.847656 -15.695312 21.390625 -13.21875 L 14.640625 -13.21875 C 14.066406 -14.800781 12.960938 -15.59375 11.328125 -15.59375 C 10.160156 -15.59375 9.226562 -15.140625 8.53125 -14.234375 C 7.84375 -13.335938 7.5 -12.046875 7.5 -10.359375 C 7.5 -8.679688 7.84375 -7.390625 8.53125 -6.484375 C 9.226562 -5.578125 10.160156 -5.125 11.328125 -5.125 C 12.960938 -5.125 14.066406 -5.914062 14.640625 -7.5 L 21.390625 -7.5 C 20.847656 -5.070312 19.695312 -3.164062 17.9375 -1.78125 C 16.175781 -0.394531 14.007812 0.296875 11.4375 0.296875 C 9.40625 0.296875 7.601562 -0.132812 6.03125 -1 C 4.457031 -1.863281 3.234375 -3.097656 2.359375 -4.703125 C 1.484375 -6.316406 1.046875 -8.203125 1.046875 -10.359375 Z M 1.046875 -10.359375 "/></g></g></g><g fill="#000000" fill-opacity="1"><g transform="translate(121.417083, 53.47411)"><g><path d="M 21.84375 -10.703125 C 21.84375 -10.109375 21.804688 -9.488281 21.734375 -8.84375 L 7.359375 -8.84375 C 7.453125 -7.550781 7.863281 -6.5625 8.59375 -5.875 C 9.320312 -5.195312 10.222656 -4.859375 11.296875 -4.859375 C 12.878906 -4.859375 13.976562 -5.53125 14.59375 -6.875 L 21.359375 -6.875 C 21.003906 -5.507812 20.375 -4.28125 19.46875 -3.1875 C 18.570312 -2.101562 17.441406 -1.25 16.078125 -0.625 C 14.722656 -0.0078125 13.203125 0.296875 11.515625 0.296875 C 9.484375 0.296875 7.675781 -0.132812 6.09375 -1 C 4.507812 -1.863281 3.269531 -3.097656 2.375 -4.703125 C 1.488281 -6.316406 1.046875 -8.203125 1.046875 -10.359375 C 1.046875 -12.515625 1.484375 -14.394531 2.359375 -16 C 3.234375 -17.613281 4.460938 -18.851562 6.046875 -19.71875 C 7.640625 -20.582031 9.460938 -21.015625 11.515625 -21.015625 C 13.515625 -21.015625 15.296875 -20.59375 16.859375 -19.75 C 18.421875 -18.914062 19.640625 -17.71875 20.515625 -16.15625 C 21.398438 -14.59375 21.84375 -12.773438 21.84375 -10.703125 Z M 15.34375 -12.375 C 15.34375 -13.457031 14.96875 -14.320312 14.21875 -14.96875 C 13.476562 -15.613281 12.550781 -15.9375 11.4375 -15.9375 C 10.375 -15.9375 9.476562 -15.625 8.75 -15 C 8.019531 -14.382812 7.566406 -13.507812 7.390625 -12.375 Z M 15.34375 -12.375 "/></g></g></g><g fill="#000000" fill-opacity="1"><g transform="translate(144.291756, 53.47411)"><g><path d="M 8.65625 -27.484375 L 8.65625 0 L 2.296875 0 L 2.296875 -27.484375 Z M 8.65625 -27.484375 "/></g></g></g><g fill="#000000" fill-opacity="1"><g transform="translate(155.241231, 53.47411)"><g/></g></g><g fill="#000000" fill-opacity="1"><g transform="translate(163.113677, 53.47411)"><g/></g></g><g fill="#000000" fill-opacity="1"><g transform="translate(170.976275, 53.47411)"><g><path d="M 11.734375 0.296875 C 9.703125 0.296875 7.875 -0.132812 6.25 -1 C 4.632812 -1.863281 3.363281 -3.097656 2.4375 -4.703125 C 1.507812 -6.316406 1.046875 -8.203125 1.046875 -10.359375 C 1.046875 -12.492188 1.515625 -14.367188 2.453125 -15.984375 C 3.390625 -17.609375 4.675781 -18.851562 6.3125 -19.71875 C 7.945312 -20.582031 9.78125 -21.015625 11.8125 -21.015625 C 13.84375 -21.015625 15.675781 -20.582031 17.3125 -19.71875 C 18.945312 -18.851562 20.234375 -17.609375 21.171875 -15.984375 C 22.109375 -14.367188 22.578125 -12.492188 22.578125 -10.359375 C 22.578125 -8.234375 22.097656 -6.359375 21.140625 -4.734375 C 20.191406 -3.109375 18.894531 -1.863281 17.25 -1 C 15.601562 -0.132812 13.765625 0.296875 11.734375 0.296875 Z M 11.734375 -5.203125 C 12.953125 -5.203125 13.988281 -5.644531 14.84375 -6.53125 C 15.695312 -7.425781 16.125 -8.703125 16.125 -10.359375 C 16.125 -12.015625 15.707031 -13.289062 14.875 -14.1875 C 14.039062 -15.082031 13.019531 -15.53125 11.8125 -15.53125 C 10.570312 -15.53125 9.539062 -15.085938 8.71875 -14.203125 C 7.90625 -13.328125 7.5 -12.046875 7.5 -10.359375 C 7.5 -8.703125 7.898438 -7.425781 8.703125 -6.53125 C 9.515625 -5.644531 10.523438 -5.203125 11.734375 -5.203125 Z M 11.734375 -5.203125 "/></g></g></g><g fill="#000000" fill-opacity="1"><g transform="translate(194.630755, 53.47411)"><g><path d="M 8.65625 -17.265625 C 9.394531 -18.410156 10.320312 -19.3125 11.4375 -19.96875 C 12.550781 -20.625 13.789062 -20.953125 15.15625 -20.953125 L 15.15625 -14.21875 L 13.40625 -14.21875 C 11.820312 -14.21875 10.632812 -13.878906 9.84375 -13.203125 C 9.050781 -12.523438 8.65625 -11.332031 8.65625 -9.625 L 8.65625 0 L 2.296875 0 L 2.296875 -20.71875 L 8.65625 -20.71875 Z M 8.65625 -17.265625 "/></g></g></g><g fill="#000000" fill-opacity="1"><g transform="translate(210.524197, 53.47411)"><g><path d="M 28.75 -20.953125 C 31.320312 -20.953125 33.367188 -20.171875 34.890625 -18.609375 C 36.410156 -17.046875 37.171875 -14.878906 37.171875 -12.109375 L 37.171875 0 L 30.859375 0 L 30.859375 -11.25 C 30.859375 -12.59375 30.503906 -13.628906 29.796875 -14.359375 C 29.097656 -15.085938 28.128906 -15.453125 26.890625 -15.453125 C 25.648438 -15.453125 24.675781 -15.085938 23.96875 -14.359375 C 23.269531 -13.628906 22.921875 -12.59375 22.921875 -11.25 L 22.921875 0 L 16.609375 0 L 16.609375 -11.25 C 16.609375 -12.59375 16.253906 -13.628906 15.546875 -14.359375 C 14.835938 -15.085938 13.863281 -15.453125 12.625 -15.453125 C 11.382812 -15.453125 10.410156 -15.085938 9.703125 -14.359375 C 9.003906 -13.628906 8.65625 -12.59375 8.65625 -11.25 L 8.65625 0 L 2.296875 0 L 2.296875 -20.71875 L 8.65625 -20.71875 L 8.65625 -18.125 C 9.300781 -18.988281 10.140625 -19.675781 11.171875 -20.1875 C 12.210938 -20.695312 13.390625 -20.953125 14.703125 -20.953125 C 16.265625 -20.953125 17.65625 -20.613281 18.875 -19.9375 C 20.101562 -19.269531 21.066406 -18.316406 21.765625 -17.078125 C 22.484375 -18.222656 23.460938 -19.15625 24.703125 -19.875 C 25.941406 -20.59375 27.289062 -20.953125 28.75 -20.953125 Z M 28.75 -20.953125 "/></g></g></g><g fill="#000000" fill-opacity="1"><g transform="translate(249.849316, 53.47411)"><g><path d="M 22.765625 -20.71875 L 22.765625 0 L 16.421875 0 L 16.421875 -2.828125 C 15.773438 -1.910156 14.898438 -1.171875 13.796875 -0.609375 C 12.691406 -0.0546875 11.472656 0.21875 10.140625 0.21875 C 8.554688 0.21875 7.15625 -0.128906 5.9375 -0.828125 C 4.726562 -1.535156 3.785156 -2.554688 3.109375 -3.890625 C 2.441406 -5.234375 2.109375 -6.804688 2.109375 -8.609375 L 2.109375 -20.71875 L 8.4375 -20.71875 L 8.4375 -9.46875 C 8.4375 -8.082031 8.789062 -7.003906 9.5 -6.234375 C 10.21875 -5.472656 11.1875 -5.09375 12.40625 -5.09375 C 13.644531 -5.09375 14.625 -5.472656 15.34375 -6.234375 C 16.0625 -7.003906 16.421875 -8.082031 16.421875 -9.46875 L 16.421875 -20.71875 Z M 22.765625 -20.71875 "/></g></g></g><g fill="#000000" fill-opacity="1"><g transform="translate(274.877773, 53.47411)"><g><path d="M 8.65625 -27.484375 L 8.65625 0 L 2.296875 0 L 2.296875 -27.484375 Z M 8.65625 -27.484375 "/></g></g></g><g fill="#000000" fill-opacity="1"><g transform="translate(285.832361, 53.47411)"><g><path d="M 1.046875 -10.40625 C 1.046875 -12.53125 1.445312 -14.394531 2.25 -16 C 3.050781 -17.613281 4.144531 -18.851562 5.53125 -19.71875 C 6.914062 -20.582031 8.460938 -21.015625 10.171875 -21.015625 C 11.640625 -21.015625 12.921875 -20.71875 14.015625 -20.125 C 15.117188 -19.53125 15.96875 -18.753906 16.5625 -17.796875 L 16.5625 -20.71875 L 22.921875 -20.71875 L 22.921875 0 L 16.5625 0 L 16.5625 -2.9375 C 15.945312 -1.96875 15.085938 -1.1875 13.984375 -0.59375 C 12.878906 0 11.597656 0.296875 10.140625 0.296875 C 8.453125 0.296875 6.914062 -0.140625 5.53125 -1.015625 C 4.144531 -1.898438 3.050781 -3.148438 2.25 -4.765625 C 1.445312 -6.390625 1.046875 -8.269531 1.046875 -10.40625 Z M 16.5625 -10.359375 C 16.5625 -11.941406 16.117188 -13.191406 15.234375 -14.109375 C 14.359375 -15.023438 13.289062 -15.484375 12.03125 -15.484375 C 10.769531 -15.484375 9.695312 -15.03125 8.8125 -14.125 C 7.9375 -13.226562 7.5 -11.988281 7.5 -10.40625 C 7.5 -8.8125 7.9375 -7.550781 8.8125 -6.625 C 9.695312 -5.695312 10.769531 -5.234375 12.03125 -5.234375 C 13.289062 -5.234375 14.359375 -5.691406 15.234375 -6.609375 C 16.117188 -7.523438 16.5625 -8.773438 16.5625 -10.359375 Z M 16.5625 -10.359375 "/></g></g></g><g fill="#000000" fill-opacity="1"><g transform="translate(311.046483, 53.47411)"><g><path d="M 8.65625 -17.796875 C 9.25 -18.753906 10.101562 -19.53125 11.21875 -20.125 C 12.332031 -20.71875 13.609375 -21.015625 15.046875 -21.015625 C 16.753906 -21.015625 18.300781 -20.582031 19.6875 -19.71875 C 21.070312 -18.851562 22.164062 -17.613281 22.96875 -16 C 23.769531 -14.394531 24.171875 -12.53125 24.171875 -10.40625 C 24.171875 -8.269531 23.769531 -6.390625 22.96875 -4.765625 C 22.164062 -3.148438 21.070312 -1.898438 19.6875 -1.015625 C 18.300781 -0.140625 16.753906 0.296875 15.046875 0.296875 C 13.578125 0.296875 12.296875 0.00390625 11.203125 -0.578125 C 10.117188 -1.160156 9.269531 -1.929688 8.65625 -2.890625 L 8.65625 0 L 2.296875 0 L 2.296875 -27.484375 L 8.65625 -27.484375 Z M 17.71875 -10.40625 C 17.71875 -11.988281 17.273438 -13.226562 16.390625 -14.125 C 15.515625 -15.03125 14.429688 -15.484375 13.140625 -15.484375 C 11.878906 -15.484375 10.804688 -15.023438 9.921875 -14.109375 C 9.046875 -13.191406 8.609375 -11.941406 8.609375 -10.359375 C 8.609375 -8.773438 9.046875 -7.523438 9.921875 -6.609375 C 10.804688 -5.691406 11.878906 -5.234375 13.140625 -5.234375 C 14.410156 -5.234375 15.488281 -5.695312 16.375 -6.625 C 17.269531 -7.550781 17.71875 -8.8125 17.71875 -10.40625 Z M 17.71875 -10.40625 "/></g></g></g><g fill="#000000" fill-opacity="1"><g transform="translate(336.260604, 53.47411)"><g><path d="M 11.734375 0.296875 C 9.703125 0.296875 7.875 -0.132812 6.25 -1 C 4.632812 -1.863281 3.363281 -3.097656 2.4375 -4.703125 C 1.507812 -6.316406 1.046875 -8.203125 1.046875 -10.359375 C 1.046875 -12.492188 1.515625 -14.367188 2.453125 -15.984375 C 3.390625 -17.609375 4.675781 -18.851562 6.3125 -19.71875 C 7.945312 -20.582031 9.78125 -21.015625 11.8125 -21.015625 C 13.84375 -21.015625 15.675781 -20.582031 17.3125 -19.71875 C 18.945312 -18.851562 20.234375 -17.609375 21.171875 -15.984375 C 22.109375 -14.367188 22.578125 -12.492188 22.578125 -10.359375 C 22.578125 -8.234375 22.097656 -6.359375 21.140625 -4.734375 C 20.191406 -3.109375 18.894531 -1.863281 17.25 -1 C 15.601562 -0.132812 13.765625 0.296875 11.734375 0.296875 Z M 11.734375 -5.203125 C 12.953125 -5.203125 13.988281 -5.644531 14.84375 -6.53125 C 15.695312 -7.425781 16.125 -8.703125 16.125 -10.359375 C 16.125 -12.015625 15.707031 -13.289062 14.875 -14.1875 C 14.039062 -15.082031 13.019531 -15.53125 11.8125 -15.53125 C 10.570312 -15.53125 9.539062 -15.085938 8.71875 -14.203125 C 7.90625 -13.328125 7.5 -12.046875 7.5 -10.359375 C 7.5 -8.703125 7.898438 -7.425781 8.703125 -6.53125 C 9.515625 -5.644531 10.523438 -5.203125 11.734375 -5.203125 Z M 11.734375 -5.203125 "/></g></g></g><g fill="#000000" fill-opacity="1"><g transform="translate(359.915084, 53.47411)"><g><path d="M 13.859375 -5.390625 L 13.859375 0 L 10.625 0 C 8.320312 0 6.523438 -0.5625 5.234375 -1.6875 C 3.953125 -2.8125 3.3125 -4.648438 3.3125 -7.203125 L 3.3125 -15.453125 L 0.78125 -15.453125 L 0.78125 -20.71875 L 3.3125 -20.71875 L 3.3125 -25.78125 L 9.65625 -25.78125 L 9.65625 -20.71875 L 13.8125 -20.71875 L 13.8125 -15.453125 L 9.65625 -15.453125 L 9.65625 -7.125 C 9.65625 -6.507812 9.800781 -6.066406 10.09375 -5.796875 C 10.394531 -5.523438 10.894531 -5.390625 11.59375 -5.390625 Z M 13.859375 -5.390625 "/></g></g></g><g fill="#32936f" fill-opacity="1"><g transform="translate(156.859523, 47.027312)"><g><path d="M 2.53125 10.5 C 1.863281 10.363281 1.359375 10.023438 1.015625 9.484375 C 0.679688 8.953125 0.578125 8.375 0.703125 7.75 L 4.125 -9.09375 L 3.359375 -9.25 C 2.691406 -9.382812 2.179688 -9.738281 1.828125 -10.3125 C 1.472656 -10.882812 1.359375 -11.476562 1.484375 -12.09375 C 1.617188 -12.757812 1.957031 -13.265625 2.5 -13.609375 C 3.050781 -13.960938 3.660156 -14.070312 4.328125 -13.9375 L 5.09375 -13.78125 L 5.484375 -15.765625 C 5.804688 -16.941406 6.242188 -17.929688 6.796875 -18.734375 C 7.347656 -19.535156 7.976562 -20.160156 8.6875 -20.609375 C 9.394531 -21.054688 10.132812 -21.347656 10.90625 -21.484375 C 11.6875 -21.617188 12.460938 -21.609375 13.234375 -21.453125 C 13.742188 -21.347656 14.28125 -21.15625 14.84375 -20.875 C 15.414062 -20.59375 15.929688 -20.253906 16.390625 -19.859375 C 16.847656 -19.460938 17.191406 -19.007812 17.421875 -18.5 C 17.660156 -18 17.722656 -17.46875 17.609375 -16.90625 C 17.484375 -16.289062 17.148438 -15.800781 16.609375 -15.4375 C 16.066406 -15.070312 15.5 -14.953125 14.90625 -15.078125 C 14.570312 -15.148438 14.285156 -15.28125 14.046875 -15.46875 C 13.804688 -15.65625 13.582031 -15.847656 13.375 -16.046875 C 13.164062 -16.242188 12.96875 -16.429688 12.78125 -16.609375 C 12.59375 -16.796875 12.382812 -16.910156 12.15625 -16.953125 C 11.71875 -17.046875 11.367188 -16.976562 11.109375 -16.75 C 10.859375 -16.53125 10.640625 -16.207031 10.453125 -15.78125 C 10.273438 -15.363281 10.128906 -14.890625 10.015625 -14.359375 C 9.910156 -13.835938 9.8125 -13.332031 9.71875 -12.84375 L 12.09375 -12.359375 C 12.757812 -12.222656 13.269531 -11.890625 13.625 -11.359375 C 13.988281 -10.828125 14.101562 -10.226562 13.96875 -9.5625 C 13.84375 -8.945312 13.503906 -8.441406 12.953125 -8.046875 C 12.398438 -7.660156 11.789062 -7.535156 11.125 -7.671875 L 8.75 -8.15625 L 5.328125 8.6875 C 5.203125 9.3125 4.863281 9.800781 4.3125 10.15625 C 3.769531 10.519531 3.175781 10.632812 2.53125 10.5 Z M 2.53125 10.5 "/></g></g></g><path fill="#32936f" d="M 17.933594 17.886719 L 39.570312 17.886719 C 39.980469 17.886719 40.386719 17.925781 40.792969 18.007812 C 41.195312 18.089844 41.585938 18.207031 41.964844 18.367188 C 42.347656 18.523438 42.707031 18.71875 43.050781 18.945312 C 43.390625 19.175781 43.707031 19.4375 44 19.730469 C 44.289062 20.019531 44.550781 20.339844 44.777344 20.683594 C 45.007812 21.023438 45.199219 21.386719 45.355469 21.769531 C 45.515625 22.152344 45.632812 22.542969 45.714844 22.949219 C 45.792969 23.355469 45.832031 23.761719 45.832031 24.175781 L 45.832031 58.621094 C 45.832031 59.035156 45.792969 59.445312 45.714844 59.851562 C 45.632812 60.253906 45.515625 60.648438 45.355469 61.03125 C 45.199219 61.410156 45.007812 61.773438 44.777344 62.117188 C 44.550781 62.460938 44.289062 62.777344 44 63.070312 C 43.707031 63.363281 43.390625 63.621094 43.050781 63.851562 C 42.707031 64.082031 42.347656 64.277344 41.964844 64.433594 C 41.585938 64.589844 41.195312 64.710938 40.792969 64.792969 C 40.386719 64.871094 39.980469 64.914062 39.570312 64.914062 L 17.933594 64.914062 C 17.523438 64.914062 17.117188 64.871094 16.714844 64.792969 C 16.308594 64.710938 15.917969 64.589844 15.539062 64.433594 C 15.15625 64.277344 14.796875 64.082031 14.453125 63.851562 C 14.113281 63.621094 13.796875 63.363281 13.503906 63.070312 C 13.214844 62.777344 12.953125 62.460938 12.726562 62.117188 C 12.496094 61.773438 12.304688 61.410156 12.148438 61.03125 C 11.988281 60.648438 11.871094 60.253906 11.792969 59.851562 C 11.710938 59.445312 11.671875 59.035156 11.671875 58.621094 L 11.671875 24.175781 C 11.671875 23.761719 11.710938 23.355469 11.792969 22.949219 C 11.871094 22.542969 11.988281 22.152344 12.148438 21.769531 C 12.304688 21.386719 12.496094 21.023438 12.726562 20.683594 C 12.953125 20.339844 13.214844 20.019531 13.503906 19.730469 C 13.796875 19.4375 14.113281 19.175781 14.453125 18.945312 C 14.796875 18.71875 15.15625 18.523438 15.539062 18.367188 C 15.917969 18.207031 16.308594 18.089844 16.714844 18.007812 C 17.117188 17.925781 17.523438 17.886719 17.933594 17.886719 Z M 17.933594 17.886719 " fill-opacity="1" fill-rule="nonzero"/><g clip-path="url(#id1)"><path stroke-linecap="butt" transform="matrix(0.236396, 0, 0, 0.237342, 10.843305, 9.558645)" fill="none" stroke-linejoin="miter" d="M 29.993226 35.088955 L 121.520532 35.088955 C 123.255569 35.088955 124.974081 35.253539 126.692593 35.599164 C 128.394582 35.944789 130.046997 36.438539 131.649841 37.11333 C 133.269208 37.771664 134.78943 38.594581 136.243556 39.549164 C 137.681158 40.520206 139.019615 41.622914 140.258926 42.857289 C 141.481714 44.075206 142.588833 45.42479 143.547234 46.873123 C 144.522159 48.304998 145.331843 49.835623 145.992809 51.44854 C 146.670299 53.061457 147.166024 54.707291 147.513032 56.418957 C 147.843515 58.130624 148.008756 59.842291 148.008756 61.586875 L 148.008756 206.716473 C 148.008756 208.461056 147.843515 210.189182 147.513032 211.900848 C 147.166024 213.596057 146.670299 215.258349 145.992809 216.871266 C 145.331843 218.467724 144.522159 219.998349 143.547234 221.446683 C 142.588833 222.895016 141.481714 224.228141 140.258926 225.462516 C 139.019615 226.696892 137.681158 227.783142 136.243556 228.754183 C 134.78943 229.725225 133.269208 230.548142 131.649841 231.206475 C 130.046997 231.864809 128.394582 232.375017 126.692593 232.720642 C 124.974081 233.049809 123.255569 233.230851 121.520532 233.230851 L 29.993226 233.230851 C 28.258189 233.230851 26.539677 233.049809 24.837689 232.720642 C 23.119176 232.375017 21.466761 231.864809 19.863917 231.206475 C 18.24455 230.548142 16.724327 229.725225 15.270202 228.754183 C 13.8326 227.783142 12.494143 226.696892 11.254831 225.462516 C 10.032044 224.228141 8.924925 222.895016 7.966524 221.446683 C 6.991599 219.998349 6.181915 218.467724 5.520949 216.871266 C 4.843458 215.258349 4.347734 213.596057 4.017251 211.900848 C 3.670243 210.189182 3.505002 208.461056 3.505002 206.716473 L 3.505002 61.586875 C 3.505002 59.842291 3.670243 58.130624 4.017251 56.418957 C 4.347734 54.707291 4.843458 53.061457 5.520949 51.44854 C 6.181915 49.835623 6.991599 48.304998 7.966524 46.873123 C 8.924925 45.42479 10.032044 44.075206 11.254831 42.857289 C 12.494143 41.622914 13.8326 40.520206 15.270202 39.549164 C 16.724327 38.594581 18.24455 37.771664 19.863917 37.11333 C 21.466761 36.438539 23.119176 35.944789 24.837689 35.599164 C 26.539677 35.253539 28.258189 35.088955 29.993226 35.088955 Z M 29.993226 35.088955 " stroke="#ffffff" stroke-width="7" stroke-opacity="1" stroke-miterlimit="4"/></g><path stroke-linecap="butt" transform="matrix(0.236396, 0, 0, 0.237342, 10.843305, 9.558645)" fill-opacity="1" fill="#ffffff" fill-rule="nonzero" stroke-linejoin="miter" d="M 89.11666 135.139174 C 89.050563 134.530215 88.472218 134.069382 87.811252 134.118757 C 87.150285 134.18459 86.654561 134.711257 86.720657 135.320216 C 87.034616 139.039799 85.216959 142.216258 81.713838 144.026675 C 77.566274 146.166258 72.195923 145.886467 68.362319 143.302508 C 67.040386 142.430216 65.949792 141.311049 65.288825 140.175424 C 64.594811 139.006883 64.132134 136.998966 64.561762 135.764591 C 64.776576 135.172091 64.429569 134.546674 63.785127 134.365632 C 63.157209 134.18459 62.496243 134.497299 62.281429 135.073341 C 61.620462 136.982507 62.215332 139.615841 63.157209 141.212299 C 64.016465 142.677091 65.321874 144.010216 66.941241 145.096467 C 69.469437 146.791675 72.575979 147.663967 75.665996 147.663967 C 78.177668 147.663967 80.68934 147.087925 82.903577 145.9523 C 87.24943 143.697508 89.51324 139.763966 89.11666 135.139174 Z M 89.11666 135.139174 " stroke="#ffffff" stroke-width="7" stroke-opacity="1" stroke-miterlimit="4"/><path stroke-linecap="butt" transform="matrix(0.236396, 0, 0, 0.237342, 10.843305, 9.558645)" fill-opacity="1" fill="#ffffff" fill-rule="nonzero" stroke-linejoin="miter" d="M 89.050563 98.519378 C 89.100136 99.128337 89.678481 99.58917 90.339448 99.539795 C 91.000414 99.49042 91.496139 98.947295 91.446566 98.338337 C 91.116083 94.618753 92.93374 91.442294 96.436862 89.631878 C 100.584425 87.492294 105.954776 87.772086 109.804905 90.356044 C 111.110313 91.228336 112.200908 92.347503 112.878398 93.499586 C 113.555888 94.65167 114.018565 96.659587 113.588937 97.91042 C 113.390647 98.486462 113.737654 99.111878 114.365572 99.29292 C 114.99349 99.49042 115.670981 99.161253 115.86927 98.585212 C 116.546761 96.676045 115.935367 94.042711 114.99349 92.446253 C 114.150758 90.997919 112.828826 89.648336 111.209458 88.562086 C 108.681262 86.866877 105.591245 85.994585 102.484703 85.994585 C 99.989555 85.994585 97.477884 86.570627 95.247122 87.706252 C 90.901269 89.961044 88.637459 93.894586 89.050563 98.519378 Z M 89.050563 98.519378 " stroke="#ffffff" stroke-width="7" stroke-opacity="1" stroke-miterlimit="4"/><path fill="#ffffff" d="M 19.363281 32.941406 C 19.378906 33.085938 19.515625 33.195312 19.671875 33.183594 C 19.828125 33.171875 19.945312 33.042969 19.929688 32.898438 C 19.855469 32.015625 20.285156 31.261719 21.113281 30.832031 C 22.09375 30.324219 23.363281 30.390625 24.269531 31.003906 C 24.582031 31.210938 24.839844 31.476562 24.996094 31.75 C 25.160156 32.023438 25.269531 32.5 25.167969 32.796875 C 25.117188 32.933594 25.199219 33.082031 25.351562 33.125 C 25.5 33.171875 25.65625 33.09375 25.707031 32.957031 C 25.863281 32.503906 25.722656 31.878906 25.5 31.5 C 25.296875 31.15625 24.988281 30.835938 24.605469 30.578125 C 24.007812 30.175781 23.273438 29.96875 22.542969 29.96875 C 21.949219 29.96875 21.355469 30.105469 20.832031 30.375 C 19.804688 30.910156 19.269531 31.84375 19.363281 32.941406 Z M 19.363281 32.941406 " fill-opacity="1" fill-rule="nonzero"/><g clip-path="url(#id2)"><path stroke-linecap="butt" transform="matrix(0.236396, 0, 0, 0.237342, 10.843305, 9.558645)" fill="none" stroke-linejoin="miter" d="M 36.041067 98.519378 C 36.107164 99.128337 36.685509 99.58917 37.346476 99.539795 C 38.007442 99.49042 38.503167 98.947295 38.43707 98.338337 C 38.123111 94.618753 39.940768 91.442294 43.44389 89.631878 C 47.591453 87.492294 52.961804 87.772086 56.795409 90.356044 C 58.117341 91.228336 59.207936 92.347503 59.868902 93.499586 C 60.562916 94.65167 61.025593 96.659587 60.595965 97.91042 C 60.381151 98.486462 60.728158 99.111878 61.3726 99.29292 C 62.000518 99.49042 62.661484 99.161253 62.876298 98.585212 C 63.537265 96.676045 62.942395 94.042711 62.000518 92.446253 C 61.141262 90.997919 59.835853 89.648336 58.216486 88.562086 C 55.68829 86.866877 52.581748 85.994585 49.491731 85.994585 C 46.980059 85.994585 44.468387 86.570627 42.25415 87.706252 C 37.908297 89.961044 35.644487 93.894586 36.041067 98.519378 Z M 36.041067 98.519378 " stroke="#ffffff" stroke-width="7" stroke-opacity="1" stroke-miterlimit="4"/></g><path fill="#ffffff" d="M 43.804688 18.789062 C 44.195312 18.847656 44.511719 19.148438 44.589844 19.539062 L 46.699219 29.980469 C 46.882812 30.890625 45.789062 31.496094 45.121094 30.859375 L 32.519531 18.84375 C 31.847656 18.203125 32.394531 17.078125 33.308594 17.214844 Z M 43.804688 18.789062 " fill-opacity="1" fill-rule="nonzero"/></svg>